<svg width="156" height="168" viewBox="0 0 156 168" fill="none" xmlns="http://www.w3.org/2000/svg">
<path d="M147.917 47.3856L147.145 56.6887L139.475 51.3687L147.917 47.3856Z" fill="#313131"/>
<path d="M2.94885 28.9489L24.6655 34.7678L8.76781 50.6655L2.94885 28.9489Z" fill="#313131"/>
<rect x="77" y="26" width="11" height="87" fill="#313131"/>
<rect x="88" width="12" height="132" fill="#313131"/>
<path fill-rule="evenodd" clip-rule="evenodd" d="M61.1282 103.649C64.8358 102.391 68.0052 100.64 70.6367 98.3977L62.7237 90.1161C61.2277 91.5333 59.2732 92.6336 56.8602 93.4169C54.5324 94.203 52.2187 94.5583 49.9191 94.4827C46.5124 94.3709 43.432 93.4071 40.678 91.5916C38.0121 89.6927 36.0033 87.2547 34.6516 84.2776C37.8425 83.1748 41.2931 81.9512 45.0034 80.6067L56.1345 76.5733C59.8477 75.1426 63.4303 73.7939 66.8823 72.5272C70.3343 71.2605 73.396 70.1966 76.0673 69.3355C74.3037 63.326 71.2244 58.4377 66.8293 54.6706C62.5222 50.8202 57.3452 48.7957 51.2982 48.5971C47.4656 48.4712 43.8205 49.1278 40.3628 50.5668C36.9931 51.9225 33.9883 53.8508 31.3484 56.3518C28.7084 58.8527 26.5653 61.8013 24.9191 65.1974C23.358 68.5964 22.5138 72.2345 22.3865 76.1118C22.2592 79.9891 22.8628 83.6748 24.1975 87.1689C25.6174 90.6657 27.5624 93.7485 30.0325 96.4173C32.5055 98.9999 35.4199 101.123 38.7757 102.785C42.2195 104.365 45.9003 105.219 49.8181 105.348C53.6506 105.473 57.4207 104.907 61.1282 103.649ZM57.7851 61.3603C59.9655 62.4669 61.5314 64.1141 62.4827 66.3017C60.5835 67.0156 58.4246 67.8504 56.0059 68.806C53.59 69.6755 51.0862 70.6284 48.4944 71.6645C45.9053 72.6146 43.2723 73.6063 40.5953 74.6397C38.0063 75.5897 35.5905 76.4592 33.3478 77.2481C33.3506 77.1619 33.3123 77.0313 33.2328 76.8562L33.2625 75.9515C33.3332 73.7974 33.8284 71.7004 34.748 69.6605C35.7528 67.6234 37.0471 65.8545 38.6311 64.3539C40.2179 62.7672 42.0489 61.5335 44.1241 60.6528C46.2844 59.775 48.5995 59.3766 51.0694 59.4577C53.3689 59.5333 55.6075 60.1674 57.7851 61.3603Z" fill="#313131"/>
<path fill-rule="evenodd" clip-rule="evenodd" d="M102.269 71.781C101.098 74.3302 100.465 77.0588 100.369 79.9668C100.265 83.1332 100.713 86.059 101.711 88.7442C102.776 91.3668 104.236 93.6466 106.091 95.5836C107.946 97.5206 110.134 99.048 112.655 100.166C115.24 101.286 118.001 101.894 120.94 101.991C124.006 102.091 126.834 101.634 129.425 100.62C132.083 99.5424 134.369 98.0649 136.285 96.1871C138.265 94.3114 139.809 92.0979 140.916 89.5466C142.086 86.9973 142.719 84.2687 142.815 81.3608C142.91 78.4528 142.458 75.6885 141.457 73.068C140.52 70.4496 139.124 68.1719 137.269 66.2349C135.48 64.2354 133.294 62.6434 130.712 61.4588C128.195 60.2117 125.435 59.5388 122.433 59.4402C119.431 59.3416 116.601 59.8309 113.944 60.9081C111.353 61.9228 109.067 63.3679 107.087 65.2437C105.109 67.0548 103.503 69.2339 102.269 71.781ZM109.3 85.5001C108.714 83.8635 108.451 82.1406 108.51 80.3312C108.57 78.5218 108.945 76.8198 109.637 75.2252C110.393 73.6327 111.365 72.2738 112.553 71.1484C113.807 69.9604 115.211 69.0685 116.765 68.4726C118.385 67.8142 120.09 67.5144 121.878 67.5731C123.667 67.6319 125.348 68.0429 126.921 68.8062C128.497 69.5048 129.84 70.487 130.949 71.7525C132.124 72.9556 133.037 74.3764 133.687 76.015C134.336 77.6537 134.631 79.3777 134.572 81.1871C134.512 82.9965 134.105 84.6974 133.349 86.2899C132.595 87.8177 131.592 89.1756 130.338 90.3636C129.15 91.489 127.746 92.3809 126.125 93.0393C124.507 93.6331 122.804 93.9006 121.015 93.8419C119.227 93.7832 117.545 93.4045 115.969 92.7058C114.459 91.9446 113.117 90.9625 111.941 89.7594C110.832 88.4939 109.951 87.0741 109.3 85.5001Z" fill="#313131"/>
<path d="M27.4503 142.069L27.3106 151.068L26.6706 151.064L26.7054 148.824C26.3202 149.581 25.7509 150.177 24.9974 150.612C24.244 151.047 23.4406 151.261 22.5873 151.256C21.2806 151.246 20.1678 150.779 19.2488 149.852C18.3299 148.913 17.8806 147.796 17.9007 146.503C17.9207 145.21 18.4046 144.107 19.3522 143.193C20.3 142.266 21.4272 141.808 22.7338 141.817C23.5871 141.823 24.3969 142.055 25.1632 142.513C25.9428 142.972 26.4801 143.576 26.7752 144.325L26.8103 142.065L27.4503 142.069ZM18.5403 146.528C18.5229 147.647 18.9145 148.623 19.715 149.456C20.529 150.275 21.496 150.688 22.616 150.696C23.7493 150.704 24.7222 150.304 25.5348 149.496C26.3476 148.675 26.7627 147.705 26.7801 146.585C26.7977 145.451 26.4063 144.469 25.6058 143.637C24.8187 142.804 23.8651 142.384 22.7451 142.377C21.6251 142.369 20.6453 142.782 19.8056 143.616C18.9795 144.437 18.5577 145.408 18.5403 146.528ZM41.1569 151.164L40.517 151.16L40.6567 142.161L41.2967 142.165L41.2684 143.985C41.9695 142.63 43.14 141.958 44.78 141.969C45.9 141.977 46.834 142.37 47.5819 143.149C48.3299 143.927 48.6953 144.87 48.6781 145.976L48.5968 151.216L47.9568 151.211L48.0381 145.972C48.0524 145.052 47.7382 144.25 47.0954 143.565C46.466 142.881 45.6913 142.536 44.7713 142.529C43.8513 142.523 43.0327 142.857 42.3155 143.532C41.6117 144.207 41.2526 145.005 41.2383 145.925L41.1569 151.164ZM62.8441 142.335L62.7047 151.314L62.0647 151.309L62.2041 142.33L62.8441 142.335ZM62.5583 140.133C62.1716 140.13 61.9811 139.949 61.9867 139.589C61.9923 139.229 62.1884 139.05 62.5751 139.053C62.9617 139.055 63.1522 139.237 63.1467 139.597C63.1411 139.957 62.9449 140.135 62.5583 140.133ZM82.5092 144.351C82.7191 143.712 83.1071 143.202 83.673 142.819C84.2524 142.436 84.9487 142.248 85.762 142.253C86.5753 142.259 87.2841 142.557 87.8883 143.148C88.4925 143.739 88.7868 144.534 88.7713 145.534L88.6788 151.494L88.0388 151.489L88.1313 145.53C88.1433 144.757 87.8999 144.115 87.4012 143.605C86.9026 143.081 86.2933 142.817 85.5733 142.812C84.8667 142.807 84.2292 143.069 83.6609 143.599C83.106 144.128 82.823 144.746 82.8121 145.453L82.7189 151.452L82.0789 151.448L82.1721 145.449C82.1833 144.729 81.9396 144.107 81.441 143.583C80.9426 143.047 80.3334 142.776 79.6134 142.771C78.8935 142.766 78.2627 143.028 77.7211 143.558C77.1795 144.087 76.9032 144.705 76.8922 145.412L76.7991 151.411L76.1591 151.407L76.2988 142.408L76.9388 142.412L76.9192 143.672C77.1921 143.274 77.5908 142.93 78.1153 142.64C78.6532 142.351 79.2022 142.208 79.7621 142.212C80.3355 142.216 80.879 142.42 81.3928 142.823C81.9068 143.213 82.2789 143.723 82.5092 144.351ZM111 142.648L110.86 151.647L110.22 151.643L110.255 149.403C109.87 150.16 109.3 150.756 108.547 151.191C107.794 151.626 106.99 151.84 106.137 151.835C104.83 151.825 103.717 151.358 102.798 150.431C101.88 149.492 101.43 148.375 101.45 147.082C101.47 145.789 101.954 144.686 102.902 143.772C103.85 142.845 104.977 142.387 106.283 142.396C107.137 142.402 107.946 142.634 108.713 143.092C109.492 143.551 110.03 144.155 110.325 144.904L110.36 142.644L111 142.648ZM102.09 147.107C102.072 148.226 102.464 149.202 103.265 150.035C104.079 150.854 105.046 151.267 106.166 151.275C107.299 151.283 108.272 150.883 109.084 150.075C109.897 149.254 110.312 148.284 110.33 147.164C110.347 146.03 109.956 145.048 109.155 144.216C108.368 143.383 107.415 142.963 106.295 142.956C105.175 142.948 104.195 143.361 103.355 144.195C102.529 145.016 102.107 145.987 102.09 147.107ZM127.293 151.321L127.285 151.881C126.338 151.875 125.536 151.556 124.879 150.924C124.223 150.28 123.902 149.464 123.917 148.478L124.062 139.119L124.702 139.123L124.646 142.763L127.406 142.782L127.397 143.342L124.637 143.323L124.557 148.482C124.544 149.295 124.801 149.971 125.326 150.508C125.864 151.045 126.52 151.316 127.293 151.321ZM144.187 152.118L144.007 152.117C142.74 152.108 141.641 151.627 140.709 150.674C139.79 149.708 139.341 148.591 139.361 147.325C139.38 146.058 139.864 144.968 140.811 144.055C141.759 143.128 142.92 142.67 144.293 142.679C145.666 142.689 146.838 143.243 147.808 144.343L141.431 150.499C142.287 151.198 143.115 151.551 143.915 151.556C144.715 151.562 145.431 151.387 146.064 151.031C146.709 150.662 147.244 150.173 147.667 149.562L147.651 150.582C146.688 151.616 145.533 152.128 144.187 152.118ZM144.104 143.238C143.051 143.23 142.105 143.637 141.265 144.458C140.439 145.266 140.018 146.203 140.001 147.269C139.985 148.336 140.324 149.271 141.018 150.076L146.928 144.337C146.112 143.612 145.171 143.245 144.104 143.238Z" fill="#313131"/>
<path d="M27.4503 142.069L28.4503 142.076L28.4658 141.076L27.4658 141.069L27.4503 142.069ZM27.3106 151.068L27.295 152.068L28.295 152.075L28.3105 151.075L27.3106 151.068ZM26.6706 151.064L25.6706 151.057L25.6551 152.057L26.6551 152.064L26.6706 151.064ZM26.7054 148.824L27.7053 148.831L25.8147 148.377L26.7054 148.824ZM24.9974 150.612L24.5031 149.747L24.9974 150.612ZM19.2488 149.852L18.5307 150.555L18.5357 150.56L19.2488 149.852ZM19.3522 143.193L20.0431 143.91L20.0483 143.905L19.3522 143.193ZM25.1632 142.513L24.6441 143.373L24.6505 143.376L25.1632 142.513ZM26.7752 144.325L25.8443 144.698L27.7752 144.332L26.7752 144.325ZM26.8103 142.065L26.8258 141.065L25.8259 141.058L25.8103 142.058L26.8103 142.065ZM19.715 149.456L18.9913 150.152L18.9969 150.158L19.0026 150.164L19.715 149.456ZM25.5348 149.496L26.2369 150.202L26.2426 150.196L25.5348 149.496ZM25.6058 143.637L24.8764 144.327L24.8821 144.333L25.6058 143.637ZM19.8056 143.616L19.1038 142.91L19.1037 142.91L19.8056 143.616ZM26.4503 142.062L26.3106 151.061L28.3105 151.075L28.4503 142.076L26.4503 142.062ZM27.3261 150.068L26.6861 150.064L26.6551 152.064L27.295 152.068L27.3261 150.068ZM27.6706 151.071L27.7053 148.831L25.7054 148.817L25.6706 151.057L27.6706 151.071ZM25.8147 148.377C25.5205 148.955 25.0911 149.408 24.5031 149.747L25.4918 151.477C26.4108 150.947 27.1199 150.207 27.596 149.271L25.8147 148.377ZM24.5031 149.747C23.9024 150.094 23.2746 150.26 22.6028 150.256L22.5717 152.255C23.6065 152.263 24.5856 152 25.4918 151.477L24.5031 149.747ZM22.6028 150.256C21.5597 150.248 20.6972 149.886 19.9618 149.145L18.5357 150.56C19.6384 151.671 21.0015 152.245 22.5717 152.255L22.6028 150.256ZM19.9668 149.15C19.2284 148.395 18.8848 147.532 18.9006 146.51L16.9007 146.496C16.8764 148.061 17.4315 149.43 18.5307 150.555L19.9668 149.15ZM18.9006 146.51C18.9165 145.489 19.2862 144.64 20.0431 143.91L18.6612 142.476C17.523 143.573 16.925 144.931 16.9007 146.496L18.9006 146.51ZM20.0483 143.905C20.8078 143.162 21.6799 142.809 22.7183 142.817L22.7493 140.817C21.1745 140.806 19.7921 141.37 18.656 142.481L20.0483 143.905ZM22.7183 142.817C23.3847 142.821 24.0218 143 24.6441 143.373L25.6823 141.654C24.772 141.11 23.7896 140.824 22.7493 140.817L22.7183 142.817ZM24.6505 143.376C25.2649 143.738 25.6402 144.18 25.8443 144.698L27.7061 143.951C27.3201 142.972 26.6207 142.207 25.6759 141.651L24.6505 143.376ZM27.7752 144.332L27.8103 142.072L25.8103 142.058L25.7752 144.318L27.7752 144.332ZM26.7948 143.065L27.4348 143.069L27.4658 141.069L26.8258 141.065L26.7948 143.065ZM17.5403 146.521C17.5187 147.913 18.0168 149.139 18.9913 150.152L20.4387 148.759C19.8122 148.108 19.5271 147.382 19.5403 146.534L17.5403 146.521ZM19.0026 150.164C19.9935 151.16 21.2079 151.686 22.6004 151.696L22.6315 149.696C21.7841 149.69 21.0645 149.389 20.4273 148.748L19.0026 150.164ZM22.6004 151.696C24.0038 151.705 25.2347 151.198 26.2368 150.202L24.8328 148.79C24.2097 149.409 23.4947 149.702 22.6315 149.696L22.6004 151.696ZM26.2426 150.196C27.2333 149.196 27.7586 147.979 27.7801 146.592L25.7802 146.578C25.7669 147.43 25.462 148.154 24.827 148.796L26.2426 150.196ZM27.7801 146.592C27.8019 145.189 27.3064 143.956 26.3295 142.94L24.8821 144.333C25.5062 144.982 25.7936 145.714 25.7802 146.578L27.7801 146.592ZM26.3352 142.946C25.3683 141.924 24.1597 141.387 22.7606 141.377L22.7296 143.377C23.5705 143.382 24.269 143.685 24.8764 144.327L26.3352 142.946ZM22.7606 141.377C21.3575 141.367 20.1233 141.897 19.1038 142.91L20.5075 144.323C21.1673 143.667 21.8928 143.371 22.7296 143.377L22.7606 141.377ZM19.1037 142.91C18.098 143.909 17.562 145.128 17.5403 146.521L19.5403 146.534C19.5535 145.687 19.861 144.965 20.5076 144.323L19.1037 142.91ZM41.1569 151.164L41.1414 152.164L42.1414 152.171L42.1569 151.171L41.1569 151.164ZM40.517 151.16L39.517 151.153L39.5015 152.153L40.5014 152.16L40.517 151.16ZM40.6567 142.161L40.6722 141.161L39.6722 141.154L39.6567 142.154L40.6567 142.161ZM41.2967 142.165L42.2966 142.172L42.3122 141.172L41.3122 141.165L41.2967 142.165ZM41.2684 143.985L40.2684 143.978L42.1559 144.438L41.2684 143.985ZM47.5819 143.149L46.8578 143.845L47.5819 143.149ZM48.5968 151.216L48.5812 152.216L49.5812 152.223L49.5967 151.223L48.5968 151.216ZM47.9568 151.211L46.9568 151.204L46.9413 152.204L47.9413 152.211L47.9568 151.211ZM47.0954 143.565L46.3566 144.246L46.3636 144.253L47.0954 143.565ZM42.3155 143.532L41.6333 142.807L41.6264 142.814L42.3155 143.532ZM41.1725 150.164L40.5325 150.16L40.5014 152.16L41.1414 152.164L41.1725 150.164ZM41.5169 151.167L41.6567 142.168L39.6567 142.154L39.517 151.153L41.5169 151.167ZM40.6412 143.161L41.2811 143.165L41.3122 141.165L40.6722 141.161L40.6412 143.161ZM40.2967 142.158L40.2684 143.978L42.2684 143.992L42.2966 142.172L40.2967 142.158ZM42.1559 144.438C42.4292 143.91 42.7691 143.558 43.1645 143.331C43.5642 143.101 44.0833 142.965 44.7645 142.969L44.7955 140.97C43.8367 140.963 42.9506 141.156 42.1798 141.599C41.4046 142.044 40.8088 142.705 40.381 143.532L42.1559 144.438ZM44.7645 142.969C45.6261 142.975 46.3016 143.266 46.8578 143.845L48.306 142.453C47.3663 141.475 46.1738 140.979 44.7955 140.97L44.7645 142.969ZM46.8578 143.845C47.4208 144.431 47.6913 145.119 47.6781 145.969L49.6781 145.983C49.6993 144.621 49.239 143.424 48.306 142.453L46.8578 143.845ZM47.6781 145.969L47.5968 151.209L49.5967 151.223L49.6781 145.983L47.6781 145.969ZM48.6123 150.216L47.9723 150.211L47.9413 152.211L48.5812 152.216L48.6123 150.216ZM48.9568 151.218L49.0381 145.979L47.0382 145.965L46.9568 151.204L48.9568 151.218ZM49.0381 145.979C49.0565 144.794 48.6412 143.744 47.8273 142.878L46.3636 144.253C46.8352 144.755 47.0483 145.311 47.0382 145.965L49.0381 145.979ZM47.8342 142.885C47.0221 142.002 45.9872 141.538 44.7868 141.529L44.7558 143.529C45.3954 143.534 45.9099 143.76 46.3566 144.246L47.8342 142.885ZM44.7868 141.529C43.5901 141.521 42.5259 141.967 41.6334 142.807L42.9977 144.258C43.5396 143.748 44.1126 143.525 44.7558 143.529L44.7868 141.529ZM41.6264 142.814C40.7399 143.664 40.257 144.713 40.2383 145.918L42.2383 145.932C42.2481 145.297 42.4834 144.751 43.0046 144.251L41.6264 142.814ZM40.2383 145.918L40.157 151.157L42.1569 151.171L42.2383 145.932L40.2383 145.918ZM62.8441 142.335L63.8441 142.342L63.8596 141.342L62.8597 141.335L62.8441 142.335ZM62.7047 151.314L62.6892 152.313L63.6892 152.32L63.7047 151.32L62.7047 151.314ZM62.0647 151.309L61.0647 151.302L61.0492 152.302L62.0492 152.309L62.0647 151.309ZM62.2041 142.33L62.2197 141.33L61.2197 141.323L61.2042 142.323L62.2041 142.33ZM61.8441 142.328L61.7047 151.307L63.7047 151.32L63.8441 142.342L61.8441 142.328ZM62.7202 150.314L62.0803 150.309L62.0492 152.309L62.6892 152.313L62.7202 150.314ZM63.0647 151.316L63.2041 142.337L61.2042 142.323L61.0647 151.302L63.0647 151.316ZM62.1886 143.33L62.8286 143.335L62.8597 141.335L62.2197 141.33L62.1886 143.33ZM62.5738 139.133C62.5176 139.132 62.6619 139.119 62.8182 139.268C62.9877 139.429 62.9866 139.602 62.9867 139.596L60.9867 139.582C60.9812 139.935 61.0725 140.379 61.4326 140.722C61.7794 141.052 62.2123 141.13 62.5428 141.133L62.5738 139.133ZM62.9867 139.596C62.9868 139.589 62.9825 139.762 62.808 139.921C62.6471 140.068 62.5033 140.052 62.5595 140.053L62.5906 138.053C62.2602 138.051 61.8249 138.123 61.4679 138.448C61.0973 138.786 60.9922 139.229 60.9867 139.582L62.9867 139.596ZM62.5595 140.053C62.6158 140.053 62.4715 140.067 62.3152 139.918C62.1456 139.757 62.1468 139.583 62.1467 139.59L64.1466 139.604C64.1521 139.251 64.0608 138.806 63.7007 138.464C63.3539 138.134 62.921 138.055 62.5906 138.053L62.5595 140.053ZM62.1467 139.59C62.1466 139.597 62.1508 139.423 62.3253 139.264C62.4862 139.118 62.6301 139.133 62.5738 139.133L62.5428 141.133C62.8732 141.135 63.3084 141.062 63.6654 140.737C64.0361 140.4 64.1412 139.957 64.1466 139.604L62.1467 139.59ZM82.5092 144.351L81.5698 144.702L82.5576 147.397L83.459 144.656L82.5092 144.351ZM83.673 142.819L83.1268 141.986L83.1176 141.992L83.673 142.819ZM88.6788 151.494L88.6633 152.493L89.6632 152.5L89.6788 151.5L88.6788 151.494ZM88.0388 151.489L87.0388 151.482L87.0233 152.482L88.0233 152.489L88.0388 151.489ZM87.4012 143.605L86.674 144.298L86.6831 144.307L87.4012 143.605ZM83.6609 143.599L82.9825 142.87L82.9737 142.878L83.6609 143.599ZM82.7189 151.452L82.7034 152.452L83.7034 152.459L83.7189 151.459L82.7189 151.452ZM82.0789 151.448L81.079 151.441L81.0634 152.441L82.0634 152.448L82.0789 151.448ZM81.441 143.583L80.7052 144.267L80.7139 144.276L81.441 143.583ZM77.7211 143.558L78.4172 144.27L77.7211 143.558ZM76.7991 151.411L76.7835 152.411L77.7835 152.418L77.799 151.418L76.7991 151.411ZM76.1591 151.407L75.1591 151.4L75.1436 152.4L76.1436 152.407L76.1591 151.407ZM76.2988 142.408L76.3143 141.408L75.3144 141.401L75.2988 142.401L76.2988 142.408ZM76.9388 142.412L77.9388 142.419L77.9543 141.419L76.9543 141.412L76.9388 142.412ZM76.9192 143.672L75.9193 143.665L75.868 146.968L77.7426 144.233L76.9192 143.672ZM78.1153 142.64L77.647 141.761L77.6376 141.766L78.1153 142.64ZM81.3928 142.823L80.7708 143.611L80.7772 143.616L80.7836 143.621L81.3928 142.823ZM83.459 144.656C83.5979 144.233 83.8451 143.905 84.2284 143.646L83.1176 141.992C82.369 142.499 81.8403 143.191 81.5593 144.046L83.459 144.656ZM84.2193 143.652C84.604 143.398 85.0965 143.249 85.7465 143.253L85.7775 141.254C84.8008 141.247 83.9007 141.475 83.1268 141.986L84.2193 143.652ZM85.7465 143.253C86.2901 143.257 86.7561 143.446 87.1859 143.866L88.5907 142.43C87.812 141.669 86.8605 141.261 85.7775 141.254L85.7465 143.253ZM87.1859 143.866C87.5612 144.233 87.7834 144.748 87.7713 145.527L89.7713 145.541C89.7902 144.321 89.4238 143.245 88.5907 142.43L87.1859 143.866ZM87.7713 145.527L87.6788 151.487L89.6788 151.5L89.7713 145.541L87.7713 145.527ZM88.6943 150.494L88.0543 150.489L88.0233 152.489L88.6633 152.493L88.6943 150.494ZM89.0388 151.496L89.1313 145.537L87.1314 145.523L87.0388 151.482L89.0388 151.496ZM89.1313 145.537C89.1471 144.522 88.8182 143.618 88.1192 142.903L86.6831 144.307C86.9817 144.612 87.1396 144.992 87.1314 145.523L89.1313 145.537ZM88.1282 142.912C87.4461 142.196 86.5811 141.819 85.5888 141.812L85.5578 143.812C86.0055 143.815 86.359 143.967 86.6741 144.298L88.1282 142.912ZM85.5888 141.812C84.6001 141.805 83.7201 142.183 82.9825 142.87L84.3393 144.328C84.7383 143.956 85.1332 143.809 85.5578 143.812L85.5888 141.812ZM82.9737 142.878C82.2405 143.578 81.8276 144.447 81.8121 145.446L83.8121 145.46C83.8185 145.046 83.9715 144.679 84.3481 144.319L82.9737 142.878ZM81.8121 145.446L81.7189 151.445L83.7189 151.459L83.8121 145.46L81.8121 145.446ZM82.7344 150.452L82.0945 150.448L82.0634 152.448L82.7034 152.452L82.7344 150.452ZM83.0789 151.455L83.1721 145.455L81.1721 145.442L81.079 151.441L83.0789 151.455ZM83.1721 145.455C83.1873 144.472 82.844 143.6 82.168 142.891L80.7139 144.276C81.0352 144.614 81.1792 144.985 81.1721 145.442L83.1721 145.455ZM82.1767 142.9C81.4971 142.168 80.6297 141.778 79.629 141.771L79.5979 143.771C80.0371 143.774 80.3881 143.925 80.7053 144.267L82.1767 142.9ZM79.629 141.771C78.6301 141.764 77.7469 142.14 77.025 142.846L78.4172 144.27C78.7784 143.916 79.1569 143.768 79.5979 143.771L79.629 141.771ZM77.025 142.846C76.3071 143.548 75.9076 144.414 75.8922 145.405L77.8922 145.419C77.8987 144.997 78.0518 144.627 78.4172 144.27L77.025 142.846ZM75.8922 145.405L75.7991 151.404L77.799 151.418L77.8922 145.419L75.8922 145.405ZM76.8146 150.411L76.1746 150.407L76.1436 152.407L76.7835 152.411L76.8146 150.411ZM77.1591 151.414L77.2988 142.415L75.2988 142.401L75.1591 151.4L77.1591 151.414ZM76.2833 143.408L76.9233 143.412L76.9543 141.412L76.3143 141.408L76.2833 143.408ZM75.9388 142.405L75.9193 143.665L77.9192 143.679L77.9388 142.419L75.9388 142.405ZM77.7426 144.233C77.9074 143.992 78.1739 143.746 78.5931 143.515L77.6376 141.766C77.0077 142.114 76.4768 142.556 76.0958 143.112L77.7426 144.233ZM78.5837 143.52C78.9859 143.303 79.3695 143.209 79.7466 143.212L79.7777 141.212C79.0348 141.207 78.3205 141.398 77.647 141.761L78.5837 143.52ZM79.7466 143.212C80.0683 143.214 80.4036 143.323 80.7708 143.611L82.0148 142.035C81.3544 141.516 80.6027 141.218 79.7777 141.212L79.7466 143.212ZM80.7836 143.621C81.1415 143.893 81.4022 144.245 81.5698 144.702L83.4485 144C83.1556 143.2 82.672 142.534 82.0019 142.025L80.7836 143.621ZM111 142.648L112 142.655L112.015 141.655L111.015 141.648L111 142.648ZM110.86 151.647L110.845 152.647L111.845 152.654L111.86 151.654L110.86 151.647ZM110.22 151.643L109.22 151.636L109.205 152.636L110.205 152.643L110.22 151.643ZM110.255 149.403L111.255 149.41L109.364 148.956L110.255 149.403ZM108.547 151.191L108.053 150.326L108.547 151.191ZM102.798 150.431L102.08 151.134L102.085 151.139L102.798 150.431ZM102.902 143.772L103.593 144.489L103.598 144.484L102.902 143.772ZM108.713 143.092L108.194 143.952L108.2 143.955L108.713 143.092ZM110.325 144.904L109.394 145.277L111.325 144.911L110.325 144.904ZM110.36 142.644L110.375 141.644L109.375 141.637L109.36 142.637L110.36 142.644ZM103.265 150.035L102.541 150.731L102.546 150.737L102.552 150.743L103.265 150.035ZM109.084 150.075L109.786 150.781L109.792 150.775L109.084 150.075ZM109.155 144.216L108.426 144.906L108.432 144.912L109.155 144.216ZM103.355 144.195L102.653 143.489L102.653 143.489L103.355 144.195ZM110 142.641L109.86 151.64L111.86 151.654L112 142.655L110 142.641ZM110.876 150.647L110.236 150.643L110.205 152.643L110.845 152.647L110.876 150.647ZM111.22 151.65L111.255 149.41L109.255 149.396L109.22 151.636L111.22 151.65ZM109.364 148.956C109.07 149.534 108.641 149.987 108.053 150.326L109.041 152.056C109.96 151.526 110.669 150.786 111.146 149.85L109.364 148.956ZM108.053 150.326C107.452 150.673 106.824 150.839 106.152 150.835L106.121 152.834C107.156 152.842 108.135 152.579 109.041 152.056L108.053 150.326ZM106.152 150.835C105.109 150.827 104.247 150.465 103.511 149.724L102.085 151.139C103.188 152.25 104.551 152.824 106.121 152.834L106.152 150.835ZM103.516 149.729C102.778 148.974 102.434 148.111 102.45 147.089L100.45 147.075C100.426 148.64 100.981 150.009 102.08 151.134L103.516 149.729ZM102.45 147.089C102.466 146.068 102.836 145.219 103.593 144.489L102.211 143.055C101.073 144.152 100.475 145.51 100.45 147.075L102.45 147.089ZM103.598 144.484C104.357 143.741 105.229 143.388 106.268 143.396L106.299 141.396C104.724 141.385 103.342 141.949 102.206 143.06L103.598 144.484ZM106.268 143.396C106.934 143.4 107.571 143.579 108.194 143.952L109.232 142.233C108.322 141.689 107.339 141.403 106.299 141.396L106.268 143.396ZM108.2 143.955C108.814 144.317 109.19 144.759 109.394 145.277L111.256 144.53C110.87 143.551 110.17 142.786 109.225 142.23L108.2 143.955ZM111.325 144.911L111.36 142.651L109.36 142.637L109.325 144.897L111.325 144.911ZM110.344 143.644L110.984 143.648L111.015 141.648L110.375 141.644L110.344 143.644ZM101.09 147.1C101.068 148.492 101.566 149.718 102.541 150.731L103.988 149.338C103.362 148.687 103.077 147.961 103.09 147.113L101.09 147.1ZM102.552 150.743C103.543 151.739 104.757 152.265 106.15 152.275L106.181 150.275C105.334 150.269 104.614 149.968 103.977 149.327L102.552 150.743ZM106.15 152.275C107.553 152.284 108.784 151.777 109.786 150.781L108.382 149.369C107.759 149.988 107.044 150.281 106.181 150.275L106.15 152.275ZM109.792 150.775C110.783 149.775 111.308 148.558 111.33 147.171L109.33 147.157C109.316 148.009 109.012 148.733 108.377 149.375L109.792 150.775ZM111.33 147.171C111.351 145.768 110.856 144.535 109.879 143.519L108.432 144.912C109.056 145.561 109.343 146.293 109.33 147.157L111.33 147.171ZM109.885 143.525C108.918 142.503 107.709 141.966 106.31 141.956L106.279 143.956C107.12 143.961 107.819 144.264 108.426 144.906L109.885 143.525ZM106.31 141.956C104.907 141.946 103.673 142.476 102.653 143.489L104.057 144.902C104.717 144.246 105.442 143.95 106.279 143.956L106.31 141.956ZM102.653 143.489C101.648 144.489 101.112 145.707 101.09 147.1L103.09 147.113C103.103 146.266 103.411 145.544 104.057 144.902L102.653 143.489ZM127.293 151.321L128.293 151.328L128.309 150.328L127.309 150.321L127.293 151.321ZM127.285 151.881L127.269 152.881L128.269 152.888L128.285 151.888L127.285 151.881ZM124.879 150.924L124.175 151.641L124.183 151.648L124.879 150.924ZM124.062 139.119L124.078 138.119L123.078 138.112L123.062 139.112L124.062 139.119ZM124.702 139.123L125.702 139.13L125.718 138.13L124.718 138.123L124.702 139.123ZM124.646 142.763L123.646 142.756L123.63 143.756L124.63 143.763L124.646 142.763ZM127.406 142.782L128.406 142.789L128.421 141.789L127.421 141.782L127.406 142.782ZM127.397 143.342L127.382 144.342L128.382 144.349L128.397 143.349L127.397 143.342ZM124.637 143.323L124.653 142.323L123.653 142.316L123.637 143.316L124.637 143.323ZM125.326 150.508L124.608 151.21L124.616 151.218L125.326 150.508ZM126.293 151.314L126.285 151.874L128.285 151.888L128.293 151.328L126.293 151.314ZM127.3 150.881C126.598 150.876 126.043 150.65 125.575 150.201L124.183 151.648C125.03 152.462 126.078 152.873 127.269 152.881L127.3 150.881ZM125.583 150.208C125.134 149.767 124.906 149.22 124.917 148.485L122.917 148.471C122.898 149.709 123.311 150.793 124.176 151.641L125.583 150.208ZM124.917 148.485L125.062 139.126L123.062 139.112L122.917 148.471L124.917 148.485ZM124.047 140.119L124.687 140.123L124.718 138.123L124.078 138.119L124.047 140.119ZM123.702 139.116L123.646 142.756L125.646 142.77L125.702 139.13L123.702 139.116ZM124.63 143.763L127.39 143.782L127.421 141.782L124.661 141.763L124.63 143.763ZM126.406 142.775L126.397 143.335L128.397 143.349L128.406 142.789L126.406 142.775ZM127.413 142.342L124.653 142.323L124.622 144.323L127.382 144.342L127.413 142.342ZM123.637 143.316L123.557 148.475L125.557 148.489L125.637 143.33L123.637 143.316ZM123.557 148.475C123.541 149.531 123.883 150.468 124.608 151.21L126.044 149.805C125.719 149.473 125.548 149.06 125.557 148.489L123.557 148.475ZM124.616 151.218C125.341 151.942 126.247 152.314 127.278 152.321L127.309 150.321C126.793 150.318 126.387 150.148 126.035 149.797L124.616 151.218ZM140.709 150.674L139.981 151.366L139.991 151.376L140.709 150.674ZM140.811 144.055L141.502 144.772L141.508 144.767L140.811 144.055ZM147.808 144.343L148.499 145.06L149.19 144.393L148.56 143.679L147.808 144.343ZM141.431 150.499L140.74 149.783L139.927 150.567L140.795 151.276L141.431 150.499ZM146.064 151.031L146.548 151.902L146.554 151.898L146.064 151.031ZM147.667 149.562L148.666 149.569L148.717 146.296L146.846 148.998L147.667 149.562ZM147.651 150.582L148.38 151.26L148.645 150.976L148.651 150.589L147.651 150.582ZM141.265 144.458L141.961 145.17L141.265 144.458ZM141.018 150.076L140.258 150.733L140.948 151.532L141.712 150.791L141.018 150.076ZM146.928 144.337L147.621 145.052L148.396 144.299L147.596 143.588L146.928 144.337ZM144.202 151.118L144.022 151.117L143.991 153.117L144.171 153.118L144.202 151.118ZM144.022 151.117C143.037 151.11 142.186 150.748 141.427 149.972L139.991 151.376C141.095 152.506 142.443 153.106 143.991 153.117L144.022 151.117ZM141.436 149.982C140.685 149.192 140.345 148.322 140.361 147.332L138.361 147.318C138.337 148.861 138.895 150.224 139.981 151.366L141.436 149.982ZM140.361 147.332C140.376 146.343 140.741 145.506 141.502 144.772L140.121 143.338C138.987 144.431 138.385 145.774 138.361 147.318L140.361 147.332ZM141.508 144.767C142.256 144.035 143.158 143.671 144.278 143.679L144.309 141.679C142.682 141.668 141.262 142.222 140.115 143.343L141.508 144.767ZM144.278 143.679C145.346 143.686 146.256 144.102 147.055 145.008L148.56 143.679C147.419 142.384 145.987 141.691 144.309 141.679L144.278 143.679ZM147.116 143.627L140.74 149.783L142.123 151.216L148.499 145.06L147.116 143.627ZM140.795 151.276C141.759 152.063 142.799 152.549 143.9 152.556L143.931 150.556C143.432 150.553 142.816 150.334 142.068 149.723L140.795 151.276ZM143.9 152.556C144.855 152.563 145.747 152.352 146.548 151.902L145.579 150.161C145.116 150.421 144.575 150.561 143.931 150.556L143.9 152.556ZM146.554 151.898C147.331 151.455 147.978 150.862 148.487 150.127L146.846 148.998C146.509 149.484 146.088 149.87 145.573 150.164L146.554 151.898ZM146.667 149.555L146.651 150.575L148.651 150.589L148.666 149.569L146.667 149.555ZM146.922 149.904C146.142 150.741 145.253 151.126 144.202 151.118L144.171 153.118C145.813 153.129 147.234 152.49 148.38 151.26L146.922 149.904ZM144.12 142.238C142.771 142.229 141.576 142.762 140.569 143.746L141.961 145.17C142.633 144.513 143.331 144.232 144.089 144.238L144.12 142.238ZM140.569 143.746C139.569 144.724 139.023 145.909 139.001 147.262L141.001 147.276C141.014 146.497 141.309 145.807 141.961 145.17L140.569 143.746ZM139.001 147.262C138.981 148.573 139.406 149.745 140.258 150.733L141.778 149.42C141.242 148.798 140.989 148.099 141.001 147.276L139.001 147.262ZM141.712 150.791L147.621 145.052L146.234 143.623L140.324 149.362L141.712 150.791ZM147.596 143.588C146.606 142.707 145.435 142.247 144.12 142.238L144.089 144.238C144.907 144.243 145.618 144.516 146.259 145.087L147.596 143.588Z" fill="#313131"/>
</svg>
