<svg width="32" height="31" viewBox="0 0 32 31" fill="none" xmlns="http://www.w3.org/2000/svg">
<path d="M22.6189 0H8.72395C4.00057 0 0.171432 3.82914 0.171432 8.55252V22.4475C0.171432 27.1709 4.00057 31 8.72395 31H22.6189C27.3423 31 31.1714 27.1709 31.1714 22.4475V8.55252C31.1714 3.82914 27.3423 0 22.6189 0ZM28.42 22.4475C28.42 25.6575 25.806 28.2485 22.6189 28.2485H8.72395C5.51389 28.2485 2.92291 25.6346 2.92291 22.4475V8.55252C2.92291 5.36538 5.53682 2.75148 8.72395 2.75148H22.6189C25.829 2.75148 28.42 5.36538 28.42 8.55252V22.4475Z" fill="white"/>
<path d="M15.6714 7.52063C11.269 7.52063 7.66919 11.0976 7.66919 15.4999C7.66919 19.9023 11.2461 23.5021 15.6714 23.5021C20.0738 23.5021 23.6736 19.9252 23.6736 15.4999C23.6736 11.0976 20.0738 7.52063 15.6714 7.52063ZM15.6714 20.7507C12.7824 20.7507 10.4207 18.4119 10.4207 15.5229C10.4436 12.6109 12.7824 10.2721 15.6714 10.2721C18.5605 10.2721 20.9222 12.6109 20.9222 15.4999C20.9222 18.389 18.5605 20.7507 15.6714 20.7507Z" fill="white"/>
<path d="M23.9947 5.18188C23.4673 5.18188 22.9399 5.38825 22.5731 5.77804C22.2062 6.1449 21.9769 6.67227 21.9769 7.19964C21.9769 7.727 22.1833 8.25437 22.5731 8.62124C22.9399 8.9881 23.4673 9.21739 23.9947 9.21739C24.522 9.21739 25.0494 9.01103 25.4162 8.62124C25.7831 8.25437 26.0124 7.727 26.0124 7.19964C26.0124 6.67227 25.806 6.1449 25.4162 5.77804C25.0494 5.38825 24.5449 5.18188 23.9947 5.18188Z" fill="white"/>
</svg>
